<?xml version="1.0" standalone="no"?>
<!DOCTYPE svg PUBLIC "-//W3C//DTD SVG 20010904//EN"
 "http://www.w3.org/TR/2001/REC-SVG-20010904/DTD/svg10.dtd">
<svg version="1.0" xmlns="http://www.w3.org/2000/svg"
 width="1280.000000pt" height="1078.000000pt" viewBox="0 0 1280.000000 1078.000000"
 preserveAspectRatio="xMidYMid meet">
<g transform="translate(0.000000,1078.000000) scale(0.100000,-0.100000)"
fill="#000000" stroke="none">
<path d="M6876 10770 c-233 -29 -446 -108 -645 -237 -166 -108 -436 -338 -621
-530 -308 -319 -459 -495 -591 -690 -50 -73 -101 -141 -115 -149 -29 -20 -127
-17 -409 12 -152 15 -267 16 -1065 10 -851 -5 -1211 -15 -1435 -36 -197 -20
-1028 -45 -1480 -45 -424 0 -463 -1 -488 -18 -55 -36 -36 -85 123 -317 252
-369 395 -546 619 -771 179 -178 322 -292 508 -403 62 -37 125 -82 140 -99 15
-18 66 -104 112 -192 125 -237 389 -715 509 -920 255 -436 491 -746 816 -1070
309 -308 488 -425 921 -600 534 -217 716 -255 1215 -255 254 0 456 11 805 41
304 27 557 29 601 6 65 -34 80 -148 44 -327 -21 -104 -120 -402 -169 -513 -58
-129 -148 -236 -264 -316 -112 -76 -413 -195 -649 -256 l-106 -28 -47 23 c-63
30 -116 24 -230 -27 -106 -48 -227 -75 -342 -76 -57 -1 -82 -4 -79 -12 2 -7
-80 -32 -228 -68 -249 -61 -333 -77 -411 -77 -62 -1 -148 -35 -215 -86 -53
-40 -348 -352 -431 -455 -84 -104 -365 -513 -399 -579 -18 -36 -70 -124 -115
-196 -126 -199 -157 -266 -175 -378 -5 -33 -33 -117 -61 -186 -29 -69 -80
-205 -115 -303 -80 -225 -113 -300 -182 -412 -42 -69 -102 -205 -102 -232 0
-2 2031 -3 4514 -3 l4514 0 6 28 c21 104 143 874 177 1127 46 331 21 521 -99
760 -37 75 -120 205 -171 269 -17 21 -31 42 -31 46 0 5 19 19 43 33 23 14 71
46 107 73 l65 47 -81 18 c-184 40 -316 140 -607 464 -313 349 -456 486 -592
567 -121 73 -256 100 -323 64 -18 -9 -59 -50 -92 -91 l-59 -75 -92 103 c-216
239 -298 386 -365 650 -14 56 -43 165 -65 242 -78 275 -107 470 -90 593 15
103 42 171 98 251 43 60 66 81 171 150 131 87 759 522 987 685 77 54 187 138
245 184 119 96 540 515 796 792 223 242 714 793 714 802 0 4 -17 10 -37 14
-150 27 -474 143 -709 253 -72 33 -136 61 -143 61 -7 0 65 -82 160 -181 120
-125 163 -176 140 -164 -51 26 -210 185 -276 274 l-57 78 -112 7 c-439 27
-2003 -154 -3875 -450 -157 -25 -291 -43 -300 -42 -14 3 3190 537 4159 694
768 124 1491 234 1535 234 10 0 8 -14 -12 -62 -40 -99 -121 -255 -184 -356
-33 -51 -55 -90 -49 -87 27 17 160 238 235 390 101 204 412 948 428 1022 15
72 -2 151 -45 209 -40 54 -170 123 -289 153 -184 47 -325 63 -504 58 -149 -4
-194 -9 -369 -46 -430 -89 -611 -154 -821 -294 -88 -59 -288 -210 -379 -286
-147 -124 -263 -295 -300 -447 -20 -82 -41 -117 -56 -94 -6 8 -19 47 -31 85
-63 217 -120 344 -213 484 -111 165 -427 494 -634 659 -556 443 -1134 705
-1779 807 -117 19 -400 27 -497 15z m5366 -1040 c162 -21 246 -45 333 -95 72
-43 60 -44 -23 -3 -101 50 -164 64 -363 83 -547 50 -1001 -43 -1354 -278 -212
-142 -375 -327 -501 -570 -78 -150 -83 -142 -8 13 240 497 673 788 1284 865
148 18 421 12 632 -15z m-14 -274 c40 -7 74 -15 76 -17 3 -2 -60 -3 -139 -1
-519 14 -1007 -185 -1396 -566 -60 -60 -109 -106 -109 -103 0 2 26 38 57 80
259 345 666 579 1088 625 72 8 349 -4 423 -18z m-908 -54 c-219 -109 -417
-227 -555 -330 -82 -62 -212 -176 -257 -226 -52 -56 -48 -39 11 48 117 172
325 340 566 456 90 43 313 118 350 118 11 0 -41 -30 -115 -66z m920 -132 c66
-9 64 -9 -75 -16 -430 -21 -841 -166 -1132 -401 -63 -51 -42 -16 29 47 223
200 510 332 803 369 87 11 301 12 375 1z m-175 -200 c25 -6 20 -8 -27 -9 -132
-3 -388 -47 -497 -85 -60 -22 -63 -20 -13 9 61 35 147 64 233 80 80 14 256 17
304 5z m-9605 -325 c200 -159 339 -260 482 -348 565 -348 1218 -573 1918 -661
222 -28 705 -56 969 -56 90 0 162 -2 159 -5 -6 -7 -404 -105 -538 -134 -253
-54 -677 -109 -1002 -131 -215 -14 -673 -14 -853 0 -635 49 -1180 208 -1595
465 -293 182 -474 355 -806 773 -257 322 -276 347 -219 287 58 -60 421 -458
512 -560 340 -382 785 -643 1343 -789 199 -52 581 -118 595 -104 3 3 -20 8
-50 12 -96 11 -344 64 -475 101 -386 110 -754 293 -1040 519 -139 110 -331
314 -546 581 -188 233 -249 311 -217 280 35 -35 395 -421 484 -520 242 -269
473 -443 804 -606 255 -125 520 -213 825 -273 156 -31 346 -59 363 -53 6 2
-15 7 -48 11 -103 13 -338 65 -486 107 -396 114 -753 292 -1057 528 -135 105
-307 280 -483 491 -270 323 -277 339 -50 105 485 -499 572 -577 816 -730 344
-216 812 -380 1295 -454 198 -30 215 -32 209 -26 -3 3 -60 14 -125 25 -719
118 -1342 418 -1784 860 -89 88 -377 422 -470 544 -8 11 116 -112 275 -273
160 -161 331 -328 380 -370 373 -320 831 -540 1390 -667 107 -24 385 -74 414
-74 35 0 -3 10 -114 29 -136 24 -373 85 -515 131 -452 148 -859 380 -1171 666
-134 123 -509 543 -508 569 0 6 6 2 12 -8 21 -32 569 -560 647 -623 422 -341
954 -574 1570 -688 208 -38 253 -40 80 -2 -392 85 -653 174 -967 327 -353 174
-645 387 -891 652 -105 113 -265 295 -301 342 -9 11 34 -27 94 -85 393 -375
529 -496 680 -601 417 -292 878 -479 1477 -599 87 -18 163 -30 169 -28 7 2
-37 14 -97 27 -768 160 -1455 518 -1915 999 -110 115 -247 272 -264 302 -4 8
48 -39 116 -106 556 -541 1002 -822 1624 -1024 210 -68 552 -149 690 -164 41
-4 37 -3 -18 9 -696 146 -1301 421 -1794 814 -115 92 -320 294 -414 409 l-64
77 115 -105 c116 -106 301 -264 414 -354 406 -322 903 -566 1471 -721 145 -40
471 -108 488 -102 6 2 -40 14 -103 26 -232 46 -636 178 -880 286 -492 219
-886 478 -1170 771 -167 171 -229 251 -105 135 50 -47 164 -144 255 -216z
m-2033 -110 c284 -425 716 -817 1163 -1054 168 -89 120 -74 -71 22 -348 174
-645 416 -894 727 -89 110 -223 306 -260 380 -25 51 -6 27 62 -75z m276 -181
c186 -217 473 -478 714 -650 241 -172 519 -317 768 -400 39 -13 54 -21 35 -18
-56 9 -265 82 -374 131 -192 85 -426 232 -618 385 -132 106 -411 384 -514 513
-161 201 -166 220 -11 39z m547 -429 c199 -158 414 -302 570 -380 72 -36 95
-56 38 -32 -112 47 -151 66 -223 106 -184 102 -378 248 -551 414 -130 124
-160 171 -44 68 52 -47 147 -125 210 -176z m9564 -7 c115 -98 331 -296 386
-354 l55 -57 -45 32 c-62 43 -204 162 -270 226 -108 104 -204 205 -196 205 5
0 36 -24 70 -52z m-9219 -126 c116 -79 217 -151 225 -159 31 -30 -158 72 -245
132 -81 57 -242 197 -205 179 8 -4 110 -72 225 -152z m8492 36 c34 -20 73 -67
73 -87 0 -14 -41 -5 -91 20 -39 20 -89 72 -89 94 0 17 60 2 107 -27z m843
-218 c107 -105 188 -188 180 -184 -75 37 -327 273 -420 394 l-35 45 40 -32
c22 -17 128 -118 235 -223z m-50 -176 c96 -97 167 -172 158 -168 -82 43 -315
266 -423 405 l-49 64 69 -62 c39 -34 149 -141 245 -239z m-890 255 c92 -42
170 -125 170 -182 l0 -29 -38 33 c-20 19 -60 51 -89 73 -28 21 -67 58 -87 82
-43 51 -31 57 44 23z m863 -477 c54 -61 94 -112 90 -112 -31 0 -334 322 -424
450 -42 60 206 -191 334 -338z m-922 322 c91 -45 185 -162 177 -217 -3 -19
-18 -7 -103 78 -87 87 -149 165 -130 165 3 0 28 -12 56 -26z m-3296 -14 c-16
-4 -43 -8 -60 -8 -29 1 -29 1 5 8 19 4 46 7 60 8 22 0 22 -1 -5 -8z m-108 -16
c-3 -3 -12 -4 -19 -1 -8 3 -5 6 6 6 11 1 17 -2 13 -5z m4207 -349 c130 -153
170 -205 158 -205 -19 0 -308 319 -406 450 l-49 65 97 -95 c54 -52 144 -149
200 -215z m-828 191 c99 -46 184 -150 184 -226 0 -28 -6 -24 -110 84 -171 176
-178 191 -74 142z m-8263 -5 c17 -7 30 -27 47 -73 43 -118 181 -423 274 -603
377 -731 814 -1285 1297 -1645 66 -50 134 -97 150 -105 16 -9 29 -18 29 -21 0
-19 -246 150 -385 264 -531 435 -1058 1169 -1420 1977 -36 80 -65 154 -65 164
0 11 10 27 22 35 26 19 21 18 51 7z m8872 -192 c110 -114 199 -242 248 -354
16 -38 16 -39 -1 -15 -74 106 -208 279 -288 372 -53 62 -106 124 -118 138 -43
50 82 -61 159 -141z m-8587 11 c294 -751 763 -1440 1292 -1899 396 -344 775
-550 1213 -662 132 -33 277 -62 283 -56 2 2 -31 11 -74 21 -882 205 -1749 966
-2422 2126 -83 142 -225 422 -235 461 -12 47 54 81 85 44 6 -8 41 -76 76 -152
108 -232 274 -526 428 -763 342 -522 732 -946 1153 -1253 389 -283 862 -474
1278 -516 61 -6 128 -13 150 -15 22 -2 -21 -2 -95 0 -517 18 -976 144 -1380
379 -761 442 -1427 1248 -1839 2224 -46 110 -39 155 24 149 28 -3 33 -10 63
-88z m2744 36 c8 -18 6 -29 -7 -50 -10 -14 -20 -26 -24 -26 -10 0 -51 68 -51
84 0 8 8 19 17 25 22 12 50 -2 65 -33z m-311 -81 c28 -38 66 -85 83 -103 l30
-32 -26 -27 -27 -26 -28 33 c-65 76 -143 186 -143 202 0 20 30 39 47 30 6 -4
35 -38 64 -77z m174 12 l46 -62 -27 -22 -27 -21 -49 63 c-52 69 -58 89 -31
103 25 15 38 6 88 -61z m5382 -10 c25 -23 58 -60 73 -82 32 -47 63 -135 58
-166 -3 -20 -8 -17 -51 27 -70 70 -187 253 -187 290 0 11 67 -32 107 -69z
m-7645 46 c9 -10 34 -61 58 -113 134 -303 372 -701 598 -1000 383 -506 824
-900 1309 -1170 185 -103 459 -215 646 -265 37 -10 65 -20 63 -22 -14 -14
-324 87 -501 162 -705 301 -1349 871 -1860 1645 -186 281 -395 668 -395 729 0
47 52 68 82 34z m471 -11 c9 -9 32 -55 52 -102 174 -408 526 -912 886 -1271
309 -307 620 -530 1009 -721 155 -77 218 -113 257 -150 29 -27 78 -60 109 -74
78 -34 654 -148 711 -140 39 5 43 3 49 -19 19 -76 -69 -76 -393 1 -1015 239
-1910 919 -2497 1898 -111 183 -253 472 -263 530 -9 55 44 88 80 48z m-180 -6
c10 -8 34 -52 53 -97 210 -501 622 -1087 1026 -1462 562 -522 1157 -826 1888
-967 80 -16 143 -29 140 -29 -3 -1 -37 -10 -75 -21 -39 -12 -127 -25 -199 -31
l-129 -9 -137 39 c-433 125 -848 332 -1227 614 -518 385 -995 961 -1308 1577
-73 145 -145 310 -145 334 0 25 45 66 72 66 13 0 31 -7 41 -14z m447 -181
c100 -199 147 -281 263 -455 254 -381 595 -745 942 -1006 160 -121 394 -268
553 -348 28 -14 52 -33 52 -41 0 -8 11 -38 25 -67 14 -28 24 -53 22 -54 -2 -2
-59 25 -128 60 -687 346 -1262 896 -1692 1616 -73 123 -201 377 -212 423 -9
36 18 69 54 65 22 -3 38 -27 121 -193z m838 97 c183 -297 477 -658 696 -852
102 -91 104 -94 99 -129 -3 -20 -7 -38 -9 -40 -2 -2 -54 41 -115 95 -178 157
-389 398 -571 649 -77 107 -218 328 -218 341 0 16 22 34 41 34 11 0 39 -36 77
-98z m150 52 c198 -336 414 -594 679 -812 48 -40 51 -44 43 -74 -5 -17 -11
-32 -13 -34 -7 -8 -186 145 -286 245 -165 166 -373 439 -474 625 -30 54 -32
67 -15 84 21 21 38 13 66 -34z m159 24 c11 -13 41 -54 68 -93 27 -38 69 -94
93 -123 45 -53 45 -53 32 -94 l-12 -42 -29 34 c-57 67 -187 242 -205 275 -15
28 -16 36 -5 49 18 22 34 20 58 -6z m-1071 4 c6 -4 41 -66 77 -138 319 -638
822 -1202 1414 -1587 70 -46 154 -98 187 -117 l58 -33 -7 -51 c-3 -28 -8 -52
-10 -54 -9 -9 -293 167 -439 271 -178 127 -317 247 -492 421 -235 236 -386
419 -561 681 -148 222 -303 511 -303 567 0 37 45 61 76 40z m182 -14 c5 -7 38
-67 72 -133 314 -602 833 -1168 1422 -1549 l106 -69 -18 -46 c-11 -27 -24 -45
-32 -43 -28 7 -329 216 -442 306 -428 345 -760 724 -1038 1187 -55 90 -158
294 -158 311 0 36 65 63 88 36z m206 -58 c288 -555 780 -1114 1330 -1510 l88
-64 -6 -49 c-3 -28 -8 -52 -11 -55 -7 -7 -163 100 -285 197 -303 239 -616 557
-847 862 -130 172 -281 406 -357 558 -42 81 -31 125 29 119 25 -3 35 -12 59
-58z m122 42 c6 -4 53 -70 105 -147 306 -456 654 -857 960 -1110 l37 -30 -17
-32 -18 -32 -84 72 c-305 259 -646 657 -942 1102 -88 131 -97 151 -75 173 14
14 19 14 34 4z m6859 -187 c77 -109 125 -222 140 -335 5 -41 3 -38 -24 31 -44
116 -116 254 -188 359 l-65 95 47 -45 c26 -25 66 -72 90 -105z m-658 20 c62
-31 147 -119 174 -180 23 -52 35 -131 25 -170 -6 -25 -11 -21 -73 67 -75 106
-149 216 -182 271 -28 45 -16 48 56 12z m565 -185 c52 -90 73 -183 73 -317 0
-83 -4 -126 -13 -135 -9 -9 -12 6 -12 76 0 107 -30 263 -71 366 -17 41 -33 82
-36 90 -10 24 31 -31 59 -80z m-647 7 c192 -161 220 -470 55 -622 -26 -24 -32
-26 -26 -10 21 57 36 149 36 219 0 110 -30 211 -106 362 -63 123 -63 126 -33
107 16 -11 50 -36 74 -56z m552 -272 c5 -93 2 -124 -16 -195 -11 -46 -35 -108
-53 -137 -33 -55 -50 -66 -25 -16 35 68 58 197 64 358 7 182 20 177 30 -10z
m-637 -27 c47 -104 0 -222 -113 -280 -22 -11 -41 -17 -44 -15 -2 3 12 27 31
55 52 72 85 151 92 220 4 34 9 62 11 62 2 0 13 -19 23 -42z m200 -481 c-150
-119 -552 -406 -470 -335 70 60 467 348 479 348 3 0 -1 -6 -9 -13z m-10 -82
c0 -10 -249 -203 -405 -314 -208 -149 -193 -139 -175 -118 12 13 569 434 578
436 1 1 2 -1 2 -4z m40 -59 c0 -6 -259 -210 -345 -273 -113 -82 -311 -206
-280 -176 6 6 51 37 100 71 50 33 187 132 305 220 220 165 220 165 220 158z"/>
<path d="M4338 7703 c7 -3 16 -2 19 1 4 3 -2 6 -13 5 -11 0 -14 -3 -6 -6z"/>
<path d="M3603 7513 c9 -2 23 -2 30 0 6 3 -1 5 -18 5 -16 0 -22 -2 -12 -5z"/>
</g>
</svg>
