<?xml version="1.0" ?><!DOCTYPE svg  PUBLIC '-//W3C//DTD SVG 1.1//EN'  'http://www.w3.org/Graphics/SVG/1.1/DTD/svg11.dtd'><svg enable-background="new 0 0 1024 1024" height="1024px" id="Layer_1" version="1.1" viewBox="0 0 1024 1024" width="1024px" xml:space="preserve" xmlns="http://www.w3.org/2000/svg" xmlns:xlink="http://www.w3.org/1999/xlink"><g><g><path clip-rule="evenodd" d="M629.832,657.59c-8.748,8.195-17.493,16.37-26.219,24.569     c-37.153,34.899-81.353,53.096-132.169,53.979c-21.879,0.378-44.295,0.742-65.617-3.332     c-71.061-13.588-117.065-67.698-123.999-141.395c-4.896-52.034,3.141-100.548,34.808-143.558     c27.829-37.795,66.258-59.902,109.864-74.331c43.623-14.437,88.796-20.564,134.312-24.848     c16.653-1.566,33.283-3.405,51.336-5.265c-3.208-27.63-4.596-54.497-9.821-80.594c-5.741-28.669-28.754-39.573-55.134-43.351     c-24.954-3.576-48.491,1.593-69.839,15.483c-17.258,11.231-27.358,27.334-32.999,46.881     c-6.59,22.839-13.313,26.766-36.525,23.723c-27.562-3.611-55.151-7.05-82.763-10.259c-24.238-2.818-29.204-9.618-23.798-33.183     c14.419-62.852,50.719-108.239,109.784-133.996c80.162-34.956,162.271-37.304,245.133-10.217     c22.725,7.432,42.324,20.867,60.424,36.538c32.994,28.567,45.749,66.294,47.387,108.067c1.907,48.699,1.995,97.477,2.423,146.221     c0.31,35.032-0.047,70.067-0.246,105.1c-0.218,38.48,10.354,73.094,36.035,102.466c2.926,3.346,5.526,7.029,7.898,10.792     c6.597,10.479,6.009,18.499-3.168,26.579c-27.582,24.28-55.272,48.451-83.362,72.14c-12.45,10.497-24.293,9.537-35.472-2.646     C668.622,701.921,649.775,680.102,629.832,657.59z M609.216,432.73c-18.291,0.993-35.428,1.337-52.428,3.048     c-11.537,1.159-23.147,3.327-34.27,6.601c-64.22,18.896-93.812,74.531-73.852,138.011c12.138,38.604,48.884,56.535,86.707,42.095     c23.198-8.857,39.137-25.729,51.473-46.788C612.729,531.496,610.147,483.004,609.216,432.73z" fill-rule="evenodd"/><g><path clip-rule="evenodd" d="M506.139,924.5c-190.894-2.469-357.665-67.01-500.006-194.332      c-2.438-2.182-4.988-5.103-5.702-8.104c-0.764-3.207-0.628-8.256,1.346-10.057c2.144-1.955,7.293-2.31,10.356-1.208      c6.072,2.184,11.703,5.689,17.358,8.923c109.136,62.382,225.911,102.328,350.529,119.053      c178.191,23.915,350.451,1.933,516.554-67.219c4.412-1.837,8.917-3.612,13.545-4.719c8.654-2.074,14.828,1.626,18.191,9.587      c3.216,7.607-0.097,13.045-6.407,17.558c-73.231,52.363-153.972,88.136-241.343,109.204      C623.257,917.001,565.104,924.083,506.139,924.5z" fill-rule="evenodd"/><path clip-rule="evenodd" d="M828.94,727.318c4.116-4.665,7.55-10.272,12.465-13.837      c21.742-15.75,47.216-21.363,73.114-25.599c31.268-5.115,62.21-4.787,92.724,4.792c13.075,4.106,16.979,8.797,16.748,22.13      c-1.007,58.69-19.519,110.461-61.522,152.538c-4.59,4.597-11.458,6.916-17.271,10.294c-1.258-0.896-2.519-1.792-3.779-2.685      c0.868-5.718,0.995-11.667,2.727-17.105c8.83-27.727,18.329-55.244,27.008-83.016c2.326-7.445,3.077-15.495,3.699-23.333      c1.092-13.718-2.723-19.23-16.2-21.762c-21.962-4.121-44.066-6.368-66.489-2.998c-14.928,2.243-29.992,3.689-45.041,4.981      c-5.304,0.455-10.741-0.607-16.115-0.979C830.317,729.6,829.629,728.46,828.94,727.318z" fill-rule="evenodd"/></g></g></g></svg>