<?xml version="1.0" encoding="UTF-8" standalone="no"?>
<!-- Created with Inkscape (http://www.inkscape.org/) -->

<svg
        xmlns:dc="http://purl.org/dc/elements/1.1/"
        xmlns:cc="http://creativecommons.org/ns#"
        xmlns:rdf="http://www.w3.org/1999/02/22-rdf-syntax-ns#"
        xmlns="http://www.w3.org/2000/svg"
        xmlns:sodipodi="http://sodipodi.sourceforge.net/DTD/sodipodi-0.dtd"
        xmlns:inkscape="http://www.inkscape.org/namespaces/inkscape"
        width="1000"
        height="825.00403"
        viewBox="0 0 264.58333 218.28232"
        version="1.1"
        id="svg40760"
        inkscape:version="0.92.2 (5c3e80d, 2017-08-06)"
        sodipodi:docname="Taco Bell (Symbol) (Print).svg">
  <defs
     id="defs40754" />
  <sodipodi:namedview
     id="base"
     pagecolor="#ffffff"
     bordercolor="#666666"
     borderopacity="1.0"
     inkscape:pageopacity="0.0"
     inkscape:pageshadow="2"
     inkscape:zoom="0.49497475"
     inkscape:cx="669.63631"
     inkscape:cy="445.55999"
     inkscape:document-units="px"
     inkscape:current-layer="layer1"
     showgrid="false"
     units="px"
     inkscape:window-width="1366"
     inkscape:window-height="705"
     inkscape:window-x="-8"
     inkscape:window-y="-8"
     inkscape:window-maximized="1" />
  <metadata
     id="metadata40757">
    <rdf:RDF>
      <cc:Work
         rdf:about="">
        <dc:format>image/svg+xml</dc:format>
        <dc:type
           rdf:resource="http://purl.org/dc/dcmitype/StillImage" />
        <dc:title></dc:title>
      </cc:Work>
    </rdf:RDF>
  </metadata>
  <g
     inkscape:label="Layer 1"
     inkscape:groupmode="layer"
     id="layer1"
     transform="translate(0,-78.71769)">
    <g
       id="g4240"
       transform="matrix(62.75393,0,0,-62.75393,246.57174,219.46849)"
       style="fill:#000000">
      <path
         id="path4242"
         d="m 0,0 c -0.41,-0.422 -1.015,-0.806 -1.279,-0.942 -0.118,-0.06 -0.237,-0.113 -0.356,-0.16 H 0 Z"
         style="fill:#000000;fill-rule:nonzero;stroke:none"
         inkscape:connector-curvature="0" />
    </g>
    <g
       id="g4244"
       transform="matrix(62.75393,0,0,-62.75393,243.67232,161.17637)"
       style="fill:#000000">
      <path
         id="path4246"
         d="M 0,0 C -0.318,0.039 -0.445,0.166 -0.445,0.166 -0.865,0.607 -1.172,0.968 -1.566,1.07 -1.712,1.107 -1.88,1.103 -2.038,1.078 -2.094,1.149 -2.204,1.25 -2.357,1.269 -2.213,1.298 -2.063,1.314 -1.909,1.314 -0.986,1.314 -0.213,0.754 0,0"
         style="fill:#000000;fill-rule:nonzero;stroke:none"
         inkscape:connector-curvature="0" />
    </g>
    <g
       id="g4248"
       transform="matrix(62.75393,0,0,-62.75393,42.735426,242.78164)"
       style="fill:#000000">
      <path
         id="path4250"
         d="m 0,0 c 0.047,0.161 0.004,0.392 0.004,0.392 -0.008,0.128 -0.272,1.077 0.324,1.586 0,0 -0.084,0.308 0.161,0.488 -0.691,-0.269 -1.17,-0.878 -1.17,-1.586 v -1.605 h 0.372 c -0.018,0.099 0.029,0.23 0.131,0.377 0,0 0.132,0.187 0.178,0.348"
         style="fill:#000000;fill-rule:nonzero;stroke:none"
         inkscape:connector-curvature="0" />
    </g>
    <g
       id="g4256"
       transform="matrix(62.75393,0,0,-62.75393,85.363753,231.99424)"
       style="fill:#000000">
      <path
         id="path4258"
         d="m 0,0 c -0.257,-0.255 -0.398,-0.515 -0.326,-0.665 0.126,-0.262 0.852,-0.162 1.58,0.188 0.727,0.349 1.293,0.875 1.16,1.133 C 2.273,0.929 1.553,0.826 0.837,0.464 L 0.813,0.456 c 0.319,0.201 0.873,0.475 1.442,0.558 0,0 0.488,0.076 0.584,-0.153 0.133,-0.31 -0.531,-0.927 -1.553,-1.419 -1.022,-0.491 -1.895,-0.618 -2.041,-0.314 -0.113,0.236 0.282,0.798 0.874,1.187 0,0 0.811,0.591 1.845,0.738 L 1.957,1.048 C 1.957,1.048 0.821,0.813 0,0"
         style="fill:#000000;fill-rule:nonzero;stroke:none"
         inkscape:connector-curvature="0" />
    </g>
    <path
       style="fill:#000000;fill-rule:nonzero;stroke:none;stroke-width:237.1802063"
       d="M 800.90039 418.33008 C 739.10074 417.68289 637.52944 446.24075 530.2832 498.03125 C 370.66094 575.11483 258.9481 674.01806 281.00586 719.55664 C 302.82644 765.09526 450.11602 739.48114 609.73828 662.63477 C 769.12338 585.55119 881.07145 486.40968 859.01367 440.87109 C 851.77596 425.92873 831.08161 418.64615 800.90039 418.33008 z M 542.73828 530.00391 C 548.66779 544.94627 549.37939 553.00957 550.32812 569.375 C 553.64863 634.83676 495.54043 683.45892 425.57227 688.91406 C 376.71314 692.47177 347.06557 671.83767 325.00781 649.06836 L 325.48242 648.83008 C 325.48242 648.83008 338.7647 636.97237 344.45703 632.70312 C 398.77128 692.9469 474.90625 654.04883 474.90625 654.04883 C 397.11114 666.85655 392.36719 598.54883 392.36719 598.54883 C 429.84166 574.35641 481.5458 547.31807 542.73828 530.00391 z "
       transform="matrix(0.26458333,0,0,0.26458333,0,78.71769)"
       id="path4266" />
    <g
       id="g4272"
       transform="matrix(62.75393,0,0,-62.75393,67.742253,207.48247)"
       style="fill:#000000">
      <path
         id="path4274"
         d="m 0,0 c 0,0 0.018,-0.094 0.029,-0.192 -0.194,-0.173 -0.29,-0.387 -0.29,-0.387 0.062,0.157 -0.005,0.451 -0.005,0.451 -0.044,0.275 -0.275,1.045 0.265,1.539 -0.039,0.138 -0.02,0.22 0.011,0.309 0.035,0.08 0.116,0.169 0.193,0.202 0,0 -0.229,-0.115 -0.099,-0.425 0.149,0.107 0.311,0.18 0.514,0.238 L 0.606,1.726 C -0.168,1.431 -0.236,0.998 -0.035,0.184 -0.017,0.111 -0.007,0.048 0,0"
         style="fill:#000000;fill-rule:nonzero;stroke:none"
         inkscape:connector-curvature="0" />
    </g>
  </g>
</svg>
