<?xml version="1.0" encoding="utf-8"?>
<!-- Generator: Adobe Illustrator 16.0.0, SVG Export Plug-In . SVG Version: 6.00 Build 0)  -->
<!DOCTYPE svg PUBLIC "-//W3C//DTD SVG 1.1//EN" "http://www.w3.org/Graphics/SVG/1.1/DTD/svg11.dtd">
<svg version="1.1" id="Calque_3" xmlns="http://www.w3.org/2000/svg"  x="0px" y="0px"
	 width="450px" height="240px" viewBox="0 0 450 240" enable-background="new 0 0 450 240" xml:space="preserve">
<g>
	<path fill-rule="evenodd" clip-rule="evenodd" d="M5.185,80.653c4.534,0,8.972,0,13.597,0c2.93,15.406,5.864,30.828,8.827,46.405
		c0.362-1.951,0.643-3.786,1.048-5.594c2.18-9.732,4.382-19.461,6.596-29.187c0.824-3.622,1.719-7.227,2.531-10.85
		c0.143-0.637,0.371-0.83,1.013-0.825c3.927,0.028,7.855,0.03,11.783-0.001c0.662-0.005,0.857,0.224,0.985,0.849
		c2.696,13.177,5.43,26.347,8.124,39.523c0.39,1.909,0.612,3.855,0.885,5.605c3.077-15.195,6.181-30.52,9.294-45.894
		c4.311,0,8.534,0,12.866,0c-0.046,0.286-0.069,0.575-0.142,0.85c-5.131,19.453-10.265,38.905-15.421,58.353
		c-0.095,0.358-0.418,0.861-0.719,0.93c-2.71,0.62-5.45,0.855-8.173,0.086c-2.814-0.795-4.81-2.625-5.742-5.345
		c-0.854-2.494-1.435-5.091-1.998-7.672c-1.671-7.662-3.316-15.332-4.885-23.017c-0.625-3.064-1.025-6.174-1.56-9.462
		c-0.136,0.657-0.233,1.162-0.347,1.665c-1.854,8.181-3.67,16.373-5.58,24.541c-1.433,6.129-2.978,12.231-4.501,18.339
		c-0.083,0.328-0.388,0.798-0.662,0.854c-2.641,0.544-5.299,0.858-7.986,0.269c-2.853-0.626-4.86-2.365-5.901-4.996
		c-0.943-2.385-1.628-4.89-2.242-7.387c-3.89-15.831-7.729-31.676-11.583-47.518C5.261,81.042,5.238,80.909,5.185,80.653z"/>
	<path fill-rule="evenodd" clip-rule="evenodd" d="M156.694,140.722c-4.182,0-8.2,0-12.275,0c0-15.054,0-30.054,0-45.12
		c3.864,0,7.673,0,11.63,0c0,1.963,0,3.929,0,5.895c0.071,0.04,0.143,0.082,0.214,0.122c3.036-4.94,7.504-7.135,13.168-7.046
		c5.779,0.091,9.973,2.668,12.42,7.991c1.019-1.146,1.935-2.305,2.979-3.334c4.714-4.651,12.228-6.04,18.088-3.346
		c4.148,1.906,6.539,5.334,7.685,9.585c0.648,2.402,1.068,4.938,1.103,7.42c0.128,8.99,0.051,17.984,0.049,26.977
		c0,0.267-0.026,0.534-0.041,0.855c-4.068,0-8.08,0-12.223,0c0-0.425,0-0.825,0-1.226c0-7.924,0.028-15.849-0.026-23.772
		c-0.011-1.605-0.206-3.238-0.558-4.805c-0.938-4.167-3.548-6.303-7.239-6.104c-3.664,0.197-6.689,3.062-7.242,6.902
		c-0.126,0.883-0.192,1.782-0.194,2.674c-0.013,8.337-0.008,16.675-0.008,25.012c0,0.41,0,0.82,0,1.303c-4.099,0-8.141,0-12.303,0
		c0-0.418,0-0.822,0-1.228c0-8.166,0.061-16.332-0.043-24.496c-0.025-1.928-0.317-3.949-0.973-5.751
		c-1.706-4.68-7.284-5.911-10.981-2.551c-2.21,2.007-3.25,4.533-3.24,7.534c0.026,8.407,0.009,16.813,0.007,25.22
		C156.694,139.838,156.694,140.245,156.694,140.722z"/>
	<path fill-rule="evenodd" clip-rule="evenodd" d="M119.071,140.732c-5.205,2.009-9.526,0.333-12.17-4.776
		c-0.467,0.469-0.893,0.943-1.365,1.368c-4.714,4.241-10.233,5.322-16.254,3.864c-4.564-1.105-7.693-4.01-9.272-8.456
		c-1.933-5.445-0.75-13.35,6.59-17.644c3.603-2.106,7.535-3.163,11.628-3.649c2.487-0.294,4.996-0.405,7.511-0.6
		c0.526-2.312-0.762-5.022-3.045-6.267c-2.206-1.202-4.608-1.333-7.03-1.117c-3.952,0.354-5.28,0.799-10.831,3.334
		c-0.759-2.572-1.536-5.128-2.237-7.705c-0.063-0.23,0.282-0.724,0.557-0.871c2.939-1.568,6.096-2.529,9.368-3.072
		c4.408-0.731,8.832-0.922,13.229,0.104c6.869,1.603,11.203,6.25,12.289,13.248c0.272,1.761,0.409,3.558,0.426,5.34
		c0.061,6.303-0.008,12.606,0.079,18.907C118.578,135.38,118.882,138.016,119.071,140.732z M106.246,118.95
		c-1.796,0.121-3.51,0.159-5.2,0.37c-2.47,0.308-4.876,0.882-6.905,2.457c-2.149,1.669-2.976,4.529-2.117,7.244
		c0.733,2.314,2.584,3.595,5.455,3.773c4.339,0.269,8.455-3.11,8.744-7.314C106.363,123.396,106.246,121.294,106.246,118.95z"/>
	<path fill-rule="evenodd" clip-rule="evenodd" d="M255.794,140.712c-5.471,1.965-9.451,0.419-12.263-4.738
		c-0.178,0.163-0.356,0.3-0.505,0.464c-3.849,4.229-8.756,5.645-14.282,5.263c-3.949-0.273-7.3-1.857-9.872-4.938
		c-4.802-5.759-4.237-16.466,4.023-21.468c3.697-2.239,7.75-3.349,11.983-3.855c2.485-0.298,4.994-0.404,7.511-0.599
		c0.558-2.453-0.967-5.335-3.51-6.501c-2.132-0.977-4.396-1.107-6.678-0.872c-4.219,0.437-5.554,0.88-10.73,3.337
		c-0.761-2.576-1.539-5.137-2.242-7.717c-0.064-0.231,0.287-0.728,0.565-0.875c2.847-1.516,5.899-2.454,9.065-3.016
		c4.37-0.777,8.763-0.965,13.133-0.054c7.104,1.48,11.622,6.302,12.716,13.566c0.265,1.763,0.394,3.56,0.409,5.344
		c0.059,6.405,0,12.813,0.077,19.218c0.025,2.126,0.329,4.249,0.505,6.374C255.729,139.981,255.76,140.321,255.794,140.712z
		 M243.002,118.949c-1.891,0.124-3.567,0.152-5.225,0.358c-2.611,0.327-5.169,0.902-7.248,2.673
		c-2.057,1.75-2.514,4.055-1.986,6.567c0.472,2.235,1.945,3.617,4.179,4.054c0.928,0.182,1.919,0.182,2.867,0.096
		c3.294-0.3,6.606-2.985,7.057-6.051C243.007,124.188,242.896,121.66,243.002,118.949z"/>
	<path fill-rule="evenodd" clip-rule="evenodd" d="M314.775,131.047c0,3.086,0,6.234,0,9.523c-4.68,1.165-9.425,1.948-14.227,0.267
		c-4.605-1.611-6.791-5.161-7.547-9.739c-0.29-1.758-0.453-3.557-0.458-5.339c-0.035-14.604-0.02-29.209-0.02-43.813
		c0-0.405,0-0.81,0-1.271c4.037,0,7.978,0,12.014,0c0,4.706,0,9.372,0,14.137c3.558,0,7.022,0,10.571,0c0,3.893,0,7.689,0,11.587
		c-3.504,0-6.968,0-10.498,0c-0.025,0.396-0.061,0.695-0.06,0.992c0.008,5.615-0.009,11.23,0.053,16.843
		c0.013,1.191,0.198,2.408,0.503,3.562c0.646,2.433,2.229,3.645,4.743,3.623C311.453,131.405,313.053,131.185,314.775,131.047z"/>
	<path fill-rule="evenodd" clip-rule="evenodd" d="M137.253,140.729c-4.079,0-8.064,0-12.1,0c0-20.02,0-39.99,0-60.037
		c4.005,0,8.014,0,12.1,0C137.253,100.674,137.253,120.668,137.253,140.729z"/>
	<path fill-rule="evenodd" clip-rule="evenodd" d="M287.438,106.425c-1.454,0-2.789-0.014-4.122,0.002
		c-5.234,0.062-9.206,3.819-9.569,9.056c-0.066,0.96-0.101,1.925-0.102,2.887c-0.009,7.062-0.005,14.122-0.005,21.183
		c0,0.371,0,0.741,0,1.168c-4.246,0-8.395,0-12.609,0c0-15.026,0-30.024,0-45.103c3.644,0,7.274,0,11.048,0c0,2.776,0,5.564,0,8.354
		c0.087,0.02,0.175,0.039,0.263,0.058c0.186-0.412,0.377-0.821,0.554-1.237c2.394-5.621,7.73-8.811,13.595-8.127
		c0.531,0.063,1.017,0.072,1.011,0.842c-0.027,3.582-0.017,7.164-0.022,10.746C287.478,106.349,287.433,106.446,287.438,106.425z"/>
	<path fill-rule="evenodd" clip-rule="evenodd" fill="#686868" d="M394.888,99.205c0.027-1.4,0.505-2.361,1.573-3.104
		c7.063-4.921,14.109-9.864,21.141-14.828c1.379-0.974,2.782-1.066,4.296-0.461c3.501,1.4,5.978,5.935,5.242,9.624
		c-0.271,1.364-0.998,2.377-2.296,2.98c-7.804,3.624-15.612,7.241-23.393,10.914c-1.583,0.749-2.926,0.538-4.209-0.517
		C395.749,102.586,394.997,100.978,394.888,99.205z"/>
	<path fill-rule="evenodd" clip-rule="evenodd" fill="#686868" d="M334.932,132.35c0.033-2.523,0.854-4.074,2.935-5.022
		c7.643-3.483,15.243-7.06,22.861-10.597c1.892-0.879,3.302-0.639,4.747,0.882c1.366,1.44,2.169,3.151,1.743,5.16
		c-0.148,0.701-0.646,1.502-1.229,1.915c-7.214,5.126-14.47,10.193-21.725,15.261c-1.363,0.952-2.839,0.811-4.223,0.096
		C336.787,138.36,335.268,135.533,334.932,132.35z"/>
	<path fill-rule="evenodd" clip-rule="evenodd" fill="#686868" d="M420.051,140.768c-0.785-0.318-1.587-0.488-2.207-0.919
		c-7.21-5.012-14.388-10.07-21.584-15.103c-1.242-0.87-1.492-2.096-1.318-3.462c0.194-1.52,0.894-2.817,2.006-3.867
		c1.416-1.336,2.743-1.534,4.525-0.706c7.775,3.611,15.541,7.238,23.321,10.836c1.905,0.881,2.56,2.508,2.488,4.383
		c-0.126,3.345-1.632,6.021-4.507,7.798C421.982,140.217,421.008,140.412,420.051,140.768z"/>
	<path fill-rule="evenodd" clip-rule="evenodd" fill="#686868" d="M334.927,88.761c0.269-3.084,1.707-5.821,4.692-7.594
		c1.743-1.037,3.444-1.008,5.2,0.24c6.876,4.887,13.789,9.722,20.727,14.522c1.547,1.07,2.052,2.399,1.678,4.171
		c-0.317,1.507-1.054,2.762-2.245,3.729c-1.252,1.016-2.567,1.266-4.117,0.535c-7.659-3.611-15.326-7.206-23.03-10.718
		C335.78,92.708,334.992,91.184,334.927,88.761z"/>
	<path fill-rule="evenodd" clip-rule="evenodd" fill="#686868" d="M380.906,58.694c2.151-0.002,3.902,0.43,5.425,1.559
		c1.368,1.013,2.001,2.315,1.832,4.102c-0.699,7.403-1.315,14.813-1.966,22.221c-0.105,1.201-0.27,2.397-0.327,3.6
		c-0.069,1.375-0.824,2.24-1.975,2.798c-1.699,0.825-3.46,0.854-5.211,0.163c-1.523-0.603-2.262-1.707-2.4-3.393
		c-0.694-8.44-1.439-16.876-2.226-25.309c-0.183-1.954,0.567-3.344,2.118-4.38C377.687,59.048,379.382,58.665,380.906,58.694z"/>
	<path fill-rule="evenodd" clip-rule="evenodd" fill="#686868" d="M381.055,162.316c-2.168-0.057-4.2-0.559-5.82-2.166
		c-0.912-0.903-1.303-1.984-1.187-3.276c0.766-8.604,1.535-17.21,2.258-25.818c0.144-1.716,1.062-2.704,2.569-3.261
		c1.293-0.479,2.62-0.531,3.96-0.177c1.96,0.52,2.859,1.484,3.049,3.511c0.548,5.859,1.052,11.724,1.568,17.586
		c0.233,2.641,0.395,5.288,0.707,7.919c0.206,1.741-0.426,3.023-1.742,4.041C384.851,161.886,383.023,162.29,381.055,162.316z"/>
	<path fill-rule="evenodd" clip-rule="evenodd" fill="#686868" d="M186.173,160.119c1.463-1.908,3.301-2.768,5.527-2.798
		c2.214-0.029,4.013,0.839,5.383,2.567c2.833,3.577,2.429,9.896-0.788,13.028c-2.482,2.417-6.99,2.734-9.362,0.257
		c-0.062-0.063-0.167-0.086-0.403-0.203c0,1.422,0,2.747-0.001,4.071c0,1.137-0.021,2.273,0.006,3.409
		c0.016,0.603-0.177,0.883-0.823,0.854c-0.893-0.039-1.79-0.027-2.685-0.007c-0.531,0.012-0.749-0.224-0.739-0.736
		c0.008-0.585-0.001-1.17-0.006-1.756c-0.04-6.643-0.058-13.285-0.147-19.927c-0.014-0.996,0.31-1.303,1.218-1.18
		c0.034,0.005,0.069,0,0.103,0C185.723,157.692,185.723,157.692,186.173,160.119z M194.763,166.213
		c-0.25-1.06-0.376-2.098-0.745-3.039c-0.669-1.706-2.126-2.572-3.795-2.446c-1.675,0.126-3.166,1.28-3.457,3.045
		c-0.244,1.471-0.269,3.018-0.122,4.504c0.175,1.773,1.56,3.01,3.248,3.262c1.648,0.245,3.292-0.607,4.012-2.266
		C194.32,168.315,194.482,167.247,194.763,166.213z"/>
	<path fill-rule="evenodd" clip-rule="evenodd" fill="#686868" d="M160.934,151.917c-0.411,1.34-0.731,2.384-1.005,3.274
		c-1.718-0.268-3.318-0.612-4.936-0.728c-0.741-0.052-1.587,0.211-2.254,0.572c-1.704,0.926-1.872,3.033-0.311,4.186
		c0.9,0.664,1.985,1.082,3,1.584c1.107,0.55,2.283,0.982,3.335,1.624c2.234,1.36,3.211,3.41,3,6.028
		c-0.2,2.49-1.454,4.304-3.676,5.342c-3.599,1.682-7.233,1.354-10.812-0.129c-0.229-0.095-0.47-0.594-0.422-0.852
		c0.178-0.938,0.476-1.853,0.715-2.728c1.588,0.405,3.085,0.879,4.621,1.144c0.856,0.147,1.789,0.045,2.656-0.116
		c1.471-0.272,2.37-1.223,2.559-2.487c0.217-1.458-0.461-2.488-1.661-3.162c-0.895-0.504-1.899-0.809-2.813-1.282
		c-1.277-0.663-2.646-1.239-3.74-2.138c-2.958-2.431-2.847-6.863,0.135-9.278c2.375-1.925,5.172-2.118,8.039-1.743
		C158.533,151.182,159.668,151.594,160.934,151.917z"/>
	<path fill-rule="evenodd" clip-rule="evenodd" fill="#686868" d="M274.461,174.499c-1.117,0-2.251-0.009-3.384,0.004
		c-0.767,0.009-0.665-0.536-0.665-1.006c-0.006-2.688,0.005-5.374-0.011-8.061c-0.003-0.584-0.041-1.173-0.144-1.746
		c-0.359-2.029-1.546-3.012-3.382-2.851c-1.677,0.146-3.056,1.652-3.077,3.453c-0.031,2.583-0.011,5.166-0.011,7.751
		c-0.001,2.464-0.001,2.475-2.42,2.459c-2.205-0.013-1.894,0.258-1.915-1.927c-0.046-4.683-0.077-9.366-0.127-14.05
		c-0.005-0.467,0.025-0.827,0.622-0.821c0.994,0.01,1.987,0.003,3.08,0.003c0.089,0.777,0.17,1.481,0.251,2.186
		c0.088,0.085,0.177,0.17,0.265,0.255c0.094-0.219,0.138-0.48,0.287-0.648c1.751-1.958,3.946-2.584,6.456-1.967
		c2.461,0.604,3.964,2.38,4.108,4.765C274.639,166.3,274.461,170.327,274.461,174.499z"/>
	<path fill-rule="evenodd" clip-rule="evenodd" fill="#686868" d="M175.27,172.071c-1.146,1.397-2.339,2.316-3.929,2.657
		c-3.675,0.786-6.603-1.113-7.139-4.823c-0.244-1.692-0.197-3.431-0.227-5.149c-0.034-2.031,0.015-4.065-0.019-6.097
		c-0.012-0.694,0.177-1.014,0.923-0.969c0.823,0.05,1.655,0.049,2.479,0.001c0.752-0.045,0.932,0.294,0.926,0.979
		c-0.026,2.721-0.026,5.441,0.001,8.163c0.007,0.717,0.089,1.443,0.233,2.146c0.236,1.158,0.865,2.046,2.081,2.319
		c1.236,0.278,2.314-0.088,3.199-0.998c0.826-0.85,1.043-1.909,1.043-3.045c0-2.549-0.005-5.097,0.004-7.646
		c0.009-2.193-0.186-1.878,1.957-1.908c0.414-0.006,0.831,0.035,1.24-0.008c0.811-0.086,1.072,0.237,1.062,1.052
		c-0.038,3.202-0.027,6.407-0.01,9.61c0.009,1.721,0.026,3.444,0.129,5.161c0.047,0.808-0.23,1.055-0.984,0.997
		c-0.548-0.042-1.108-0.062-1.652,0.004c-0.913,0.108-1.257-0.293-1.232-1.156C175.364,173.021,175.312,172.68,175.27,172.071z"/>
	<path fill-rule="evenodd" clip-rule="evenodd" fill="#686868" d="M246.162,167.27c0.145,2.607,1.831,4.23,4.461,4.275
		c1.43,0.025,2.864-0.246,4.295-0.397c0.295-0.032,0.584-0.128,0.983-0.218c0.181,0.848,0.392,1.607,0.479,2.381
		c0.025,0.227-0.255,0.645-0.478,0.716c-2.836,0.913-5.719,1.279-8.617,0.346c-3.476-1.121-5.573-4.4-5.297-8.299
		c0.08-1.122,0.269-2.269,0.624-3.33c1.386-4.146,5.504-6.297,9.729-5.167c2.829,0.757,4.718,3.214,5.041,6.612
		c0.067,0.716,0.007,1.444,0.039,2.164c0.033,0.732-0.315,0.932-1.003,0.926c-2.994-0.025-5.987-0.01-8.981-0.009
		C247.034,167.27,246.633,167.27,246.162,167.27z M253.308,164.252c0.105-2.423-1.305-4.03-3.403-4.006
		c-1.993,0.023-3.733,1.914-3.623,4.006C248.599,164.252,250.921,164.252,253.308,164.252z"/>
	<path fill-rule="evenodd" clip-rule="evenodd" fill="#686868" d="M303.843,167.27c0.093,2.603,1.882,4.28,4.565,4.283
		c1.668,0.002,3.338-0.26,5.188-0.419c0.145,0.659,0.362,1.475,0.475,2.305c0.023,0.179-0.298,0.524-0.523,0.598
		c-2.771,0.896-5.593,1.257-8.431,0.39c-3.962-1.212-5.628-4.56-5.441-8.609c0.052-1.149,0.323-2.335,0.735-3.411
		c1.532-3.991,5.549-5.949,9.664-4.812c2.838,0.783,4.723,3.327,4.993,6.776c0.051,0.651-0.004,1.309,0.027,1.961
		c0.034,0.719-0.283,0.954-0.987,0.948c-2.997-0.025-5.995-0.011-8.992-0.01C304.712,167.27,304.309,167.27,303.843,167.27z
		 M303.889,164.303c2.258,0,4.448,0.014,6.638-0.027c0.172-0.003,0.469-0.373,0.481-0.588c0.086-1.46-1.032-2.93-2.451-3.303
		C306.212,159.769,304.059,161.495,303.889,164.303z"/>
	<path fill-rule="evenodd" clip-rule="evenodd" fill="#686868" d="M204.839,167.27c0.053,2.569,1.817,4.263,4.502,4.279
		c1.701,0.011,3.402-0.257,5.248-0.411c0.139,0.646,0.348,1.436,0.454,2.241c0.024,0.196-0.25,0.571-0.458,0.638
		c-3.082,0.979-6.199,1.378-9.29,0.107c-3.506-1.443-4.719-4.6-4.66-8.021c0.041-2.323,0.676-4.51,2.302-6.255
		c2.327-2.5,5.233-3.1,8.409-2.132c3.158,0.961,4.333,3.525,4.685,6.54c0.352,3.007,0.3,3.013-2.677,3.013c-2.443,0-4.887,0-7.33,0
		C205.652,167.27,205.281,167.27,204.839,167.27z M212.02,164.245c0.006-1.493-0.384-2.736-1.641-3.505
		c-1.178-0.722-2.453-0.705-3.619,0.046c-1.222,0.786-1.816,1.96-1.952,3.459C207.289,164.245,209.608,164.245,212.02,164.245z"/>
	<path fill-rule="evenodd" clip-rule="evenodd" fill="#686868" d="M240.602,161.263c-2.769-0.86-5.382-1.143-7.257,1.385
		c-1.486,2.003-1.524,4.336-0.266,6.431c1.807,3.002,4.678,2.609,7.656,1.834c0.186,0.926,0.388,1.781,0.505,2.647
		c0.025,0.188-0.201,0.508-0.396,0.611c-3.174,1.713-8.818,0.665-11.038-2.157c-2.297-2.918-2.486-6.218-1.118-9.557
		c1.39-3.396,4.223-4.891,7.734-5.085c1.38-0.076,2.787,0.261,4.177,0.449c0.588,0.078,0.791,0.449,0.617,1.046
		C240.996,159.621,240.823,160.389,240.602,161.263z"/>
	<path fill-rule="evenodd" clip-rule="evenodd" fill="#686868" d="M278.502,161.009c-0.421-0.04-0.723-0.084-1.024-0.094
		c-1.421-0.043-1.421-0.04-1.423-1.413c-0.001-0.311,0.026-0.622-0.004-0.929c-0.065-0.692,0.262-0.937,0.913-0.875
		c0.238,0.021,0.482-0.019,0.723,0.004c0.638,0.059,0.809-0.243,0.828-0.851c0.065-2.286,0.085-2.288,2.299-2.933
		c0.554-0.162,1.114-0.305,1.811-0.493c0,1.443,0,2.771,0,4.277c1.097,0,2.083,0.031,3.066-0.011
		c0.719-0.032,0.972,0.248,0.963,0.958c-0.034,2.639,0.205,2.219-2.153,2.261c-0.576,0.01-1.152,0.001-1.867,0.001
		c0,1.444-0.002,2.741,0.001,4.039c0.004,1.206-0.019,2.411,0.028,3.615c0.09,2.311,0.903,2.986,3.203,2.727
		c0.133-0.016,0.268-0.023,0.66-0.058c0,1.014,0.037,1.987-0.032,2.952c-0.013,0.173-0.445,0.418-0.706,0.45
		c-0.952,0.118-1.921,0.272-2.872,0.212c-2.744-0.176-4.336-2.038-4.399-5.131c-0.053-2.513-0.014-5.028-0.014-7.541
		C278.502,161.808,278.502,161.439,278.502,161.009z"/>
	<path fill-rule="evenodd" clip-rule="evenodd" fill="#686868" d="M289.167,174.505c0-0.998,0.006-1.819,0-2.641
		c-0.036-4.401-0.063-8.804-0.127-13.205c-0.01-0.7,0.169-1.017,0.912-0.965c0.822,0.054,1.859-0.257,2.408,0.14
		c0.458,0.329,0.342,1.45,0.487,2.22c0.025,0.127,0.086,0.245,0.137,0.393c0.522-0.653,0.961-1.312,1.51-1.861
		c0.918-0.919,2.068-1.366,3.372-1.23c0.256,0.025,0.66,0.408,0.677,0.647c0.074,1.089,0.032,2.185,0.032,3.347
		c-0.363,0-0.625,0.009-0.886-0.002c-2.16-0.095-3.648,1.014-4.084,3.127c-0.15,0.733-0.176,1.501-0.183,2.253
		c-0.022,2.271-0.027,4.541,0.001,6.812c0.009,0.686-0.174,1.012-0.923,0.979C291.444,174.469,290.383,174.505,289.167,174.505z"/>
	<path fill-rule="evenodd" clip-rule="evenodd" fill="#686868" d="M227.516,161.245c-0.228,0.086-0.288,0.129-0.351,0.13
		c-3.398,0.012-4.778,1.381-4.81,4.822c-0.021,2.341-0.005,4.683-0.005,7.024c0,0.372,0,0.745,0,1.263
		c-1.317,0-2.543,0.035-3.765-0.039c-0.176-0.01-0.453-0.534-0.459-0.827c-0.042-1.927-0.008-3.855-0.025-5.784
		c-0.032-3.166-0.085-6.331-0.125-9.498c-0.002-0.164,0.042-0.327,0.074-0.561c1.193,0,2.342,0,3.574,0
		c0.079,0.951,0.154,1.853,0.222,2.665c0.725-0.785,1.379-1.622,2.171-2.302c0.445-0.382,1.093-0.587,1.683-0.729
		c1.532-0.369,1.815-0.115,1.816,1.455C227.516,159.68,227.516,160.494,227.516,161.245z"/>
	<path fill-rule="evenodd" clip-rule="evenodd" fill="#6C6C6C" d="M435.459,137.416c-0.218,0.639-0.405,1.289-0.667,1.909
		c-0.102,0.241-0.371,0.413-0.564,0.617c-0.161-0.197-0.372-0.371-0.473-0.595c-0.197-0.443-0.333-0.916-0.494-1.378
		c-0.092,0.015-0.183,0.032-0.273,0.047c-0.027,0.427-0.013,0.862-0.099,1.277c-0.051,0.254-0.254,0.479-0.39,0.716
		c-0.123-0.229-0.36-0.461-0.356-0.687c0.021-0.961,0.09-1.925,0.198-2.879c0.024-0.207,0.29-0.541,0.443-0.54
		c0.249,0.001,0.634,0.171,0.721,0.374c0.303,0.687,0.5,1.421,0.813,2.368c0.293-0.852,0.47-1.535,0.77-2.157
		c0.131-0.272,0.515-0.424,0.783-0.63c0.163,0.249,0.443,0.487,0.471,0.751c0.098,0.922,0.127,1.853,0.135,2.78
		c0.001,0.214-0.188,0.427-0.292,0.64c-0.153-0.22-0.407-0.424-0.442-0.66c-0.096-0.634-0.097-1.283-0.135-1.926
		C435.558,137.436,435.508,137.427,435.459,137.416z"/>
	<path fill-rule="evenodd" clip-rule="evenodd" fill="#6C6C6C" d="M441.077,138.317c0.213-0.605,0.373-1.238,0.658-1.809
		c0.138-0.274,0.509-0.431,0.774-0.64c0.174,0.252,0.467,0.491,0.5,0.76c0.106,0.921,0.146,1.853,0.154,2.781
		c0.002,0.201-0.231,0.403-0.357,0.607c-0.133-0.198-0.347-0.383-0.383-0.597c-0.101-0.603-0.127-1.217-0.33-1.852
		c-0.118,0.306-0.212,0.624-0.358,0.916c-0.251,0.493-0.532,0.971-0.801,1.455c-0.278-0.507-0.569-1.008-0.83-1.524
		c-0.118-0.238-0.178-0.507-0.264-0.763c-0.099,0-0.197,0-0.296-0.001c0,0.571,0.047,1.147-0.021,1.71
		c-0.026,0.229-0.298,0.429-0.457,0.644c-0.102-0.226-0.295-0.454-0.288-0.675c0.027-0.928,0.087-1.857,0.201-2.779
		c0.029-0.241,0.311-0.649,0.449-0.639c0.272,0.021,0.65,0.226,0.761,0.458c0.29,0.614,0.46,1.286,0.678,1.936
		C440.937,138.311,441.008,138.314,441.077,138.317z"/>
	<path fill-rule="evenodd" clip-rule="evenodd" fill="#6E6E6E" d="M446.499,139.473c-0.927,0.93-2.228,0.694-2.833-0.253
		c-0.68-1.062-0.337-2.589,0.758-3.126c0.383-0.188,0.857-0.261,1.288-0.251c0.269,0.005,0.534,0.258,0.802,0.4
		c-0.257,0.08-0.511,0.216-0.771,0.229c-0.974,0.049-1.483,0.521-1.505,1.454c-0.022,0.967,0.42,1.419,1.435,1.475
		C445.948,139.417,446.224,139.448,446.499,139.473z"/>
	<path fill-rule="evenodd" clip-rule="evenodd" fill="#767676" d="M430.033,136.783c-0.477-0.179-0.833-0.313-1.251-0.471
		c0.474-0.414,2.627-0.677,2.971-0.395c0.101,0.082,0.104,0.496,0.021,0.545c-0.222,0.135-0.513,0.156-0.93,0.261
		c0,0.799,0.039,1.616-0.02,2.426c-0.022,0.299-0.279,0.581-0.43,0.871c-0.121-0.276-0.329-0.547-0.347-0.829
		C430.002,138.375,430.033,137.555,430.033,136.783z"/>
	<path fill-rule="evenodd" clip-rule="evenodd" fill="#707070" d="M437.05,140.239c-0.172-0.84,0.923-3.937,1.748-4.271
		c-0.493,1.456-0.986,2.911-1.479,4.366C437.229,140.304,437.14,140.271,437.05,140.239z"/>
	<path fill-rule="evenodd" clip-rule="evenodd" fill="none" d="M106.246,118.95c0,2.344,0.118,4.446-0.023,6.53
		c-0.289,4.204-4.405,7.583-8.744,7.314c-2.871-0.179-4.722-1.459-5.455-3.773c-0.859-2.715-0.032-5.575,2.117-7.244
		c2.028-1.575,4.435-2.149,6.905-2.457C102.736,119.109,104.45,119.071,106.246,118.95z"/>
	<path fill-rule="evenodd" clip-rule="evenodd" fill="none" d="M243.002,118.949c-0.106,2.711,0.005,5.238-0.356,7.697
		c-0.45,3.065-3.763,5.751-7.057,6.051c-0.948,0.086-1.939,0.086-2.867-0.096c-2.233-0.437-3.707-1.818-4.179-4.054
		c-0.527-2.513-0.07-4.817,1.986-6.567c2.079-1.771,4.637-2.346,7.248-2.673C239.435,119.102,241.111,119.073,243.002,118.949z"/>
	<path fill-rule="evenodd" clip-rule="evenodd" fill="none" d="M194.763,166.213c-0.281,1.034-0.443,2.103-0.86,3.06
		c-0.72,1.658-2.364,2.511-4.012,2.266c-1.688-0.252-3.072-1.488-3.248-3.262c-0.146-1.486-0.122-3.033,0.122-4.504
		c0.291-1.765,1.782-2.919,3.457-3.045c1.669-0.126,3.126,0.74,3.795,2.446C194.387,164.115,194.513,165.153,194.763,166.213z"/>
	<path fill-rule="evenodd" clip-rule="evenodd" fill="none" d="M253.308,164.252c-2.387,0-4.709,0-7.026,0
		c-0.11-2.092,1.63-3.982,3.623-4.006C252.003,160.222,253.413,161.829,253.308,164.252z"/>
	<path fill-rule="evenodd" clip-rule="evenodd" fill="none" d="M303.889,164.303c0.17-2.808,2.323-4.534,4.668-3.918
		c1.419,0.373,2.537,1.843,2.451,3.303c-0.013,0.215-0.31,0.585-0.481,0.588C308.337,164.316,306.146,164.303,303.889,164.303z"/>
	<path fill-rule="evenodd" clip-rule="evenodd" fill="none" d="M212.02,164.245c-2.412,0-4.731,0-7.211,0
		c0.136-1.499,0.729-2.673,1.952-3.459c1.166-0.751,2.44-0.768,3.619-0.046C211.636,161.509,212.026,162.752,212.02,164.245z"/>
</g>
</svg>
